<svg width="24" height="24" viewBox="0 0 24 24" fill="none" xmlns="http://www.w3.org/2000/svg">
<g clip-path="url(#clip0_1112_12353)">
<path d="M17 3.33989C18.5083 4.21075 19.7629 5.46042 20.6398 6.96519C21.5167 8.46997 21.9854 10.1777 21.9994 11.9192C22.0135 13.6608 21.5725 15.3758 20.72 16.8946C19.8676 18.4133 18.6332 19.6831 17.1392 20.5782C15.6452 21.4733 13.9434 21.9627 12.2021 21.998C10.4608 22.0332 8.74055 21.6131 7.21155 20.7791C5.68256 19.9452 4.39787 18.7264 3.48467 17.2434C2.57146 15.7604 2.06141 14.0646 2.005 12.3239L2 11.9999L2.005 11.6759C2.061 9.94888 2.56355 8.26585 3.46364 6.79089C4.36373 5.31592 5.63065 4.09934 7.14089 3.25977C8.65113 2.42021 10.3531 1.98629 12.081 2.00033C13.8089 2.01437 15.5036 2.47589 17 3.33989ZM15.707 9.29289C15.5348 9.12072 15.3057 9.01729 15.0627 9.002C14.8197 8.98672 14.5794 9.06064 14.387 9.20989L14.293 9.29289L11 12.5849L9.707 11.2929L9.613 11.2099C9.42058 11.0607 9.18037 10.9869 8.9374 11.0022C8.69444 11.0176 8.46541 11.121 8.29326 11.2932C8.12112 11.4653 8.01768 11.6943 8.00235 11.9373C7.98702 12.1803 8.06086 12.4205 8.21 12.6129L8.293 12.7069L10.293 14.7069L10.387 14.7899C10.5624 14.926 10.778 14.9998 11 14.9998C11.222 14.9998 11.4376 14.926 11.613 14.7899L11.707 14.7069L15.707 10.7069L15.79 10.6129C15.9393 10.4205 16.0132 10.1802 15.9979 9.93721C15.9826 9.69419 15.8792 9.46509 15.707 9.29289Z" fill="#3D3C47"/>
<path d="M15.0628 9.00197C15.3058 9.01725 15.5349 9.12068 15.7071 9.29286C15.8793 9.46505 15.9827 9.69415 15.998 9.93718C16.0133 10.1802 15.9394 10.4205 15.7901 10.6129L15.7071 10.7069L11.7071 14.7069L11.6131 14.7899C11.4377 14.9259 11.2221 14.9998 11.0001 14.9998C10.7782 14.9998 10.5625 14.9259 10.3871 14.7899L10.2931 14.7069L8.29312 12.7069L8.21012 12.6129C8.06098 12.4204 7.98714 12.1802 8.00247 11.9373C8.0178 11.6943 8.12124 11.4653 8.29338 11.2931C8.46553 11.121 8.69456 11.0175 8.93752 11.0022C9.18049 10.9869 9.4207 11.0607 9.61312 11.2099L9.70712 11.2929L11.0001 12.5849L14.2931 9.29286L14.3871 9.20986C14.5795 9.06061 14.8198 8.98669 15.0628 9.00197Z" fill="#63626D"/>
</g>
<defs>
<clipPath id="clip0_1112_12353">
<rect width="24" height="24" fill="white"/>
</clipPath>
</defs>
</svg>
