<svg width="20" height="20" viewBox="0 0 20 20" fill="none" xmlns="http://www.w3.org/2000/svg">
<path d="M8.80029 4H14.4336C15.6302 4 16.6003 4.97005 16.6003 6.16667V6.16667C16.6003 7.36328 15.6302 8.33333 14.4336 8.33333H8.80029" stroke="#E4E4E5" stroke-width="1.2" stroke-linecap="round"/>
<path d="M9.66699 8.3335H13.1337C14.091 8.3335 14.867 9.10954 14.867 10.0668V10.0668C14.867 11.0241 14.091 11.8002 13.1337 11.8002H9.66699" stroke="#E4E4E5" stroke-width="1.2" stroke-linecap="round"/>
<path d="M9.66699 11.7998H12.267H12.7003C13.8969 11.7998 14.867 12.7699 14.867 13.9665V13.9665C14.867 15.1631 13.8969 16.1331 12.7003 16.1331H12.267H9.66699" stroke="#E4E4E5" stroke-width="1.2" stroke-linecap="round"/>
<path d="M11.4001 4H9.43343C6.21177 4 3.6001 6.61167 3.6001 9.83333V10.3C3.6001 13.5217 6.21177 16.1333 9.43343 16.1333H11.4001" stroke="#E4E4E5" stroke-width="1.2"/>
</svg>
